# xmcd CD database file
#
# Track frame offsets:
#	150
#	28853
#	53346
#	79340
#	104432
#	138037
#	160198
#	184589
#	208266
#	229267
#	264270
#	289625
#	305208
#
# Disc length: 4379 seconds
#
# Revision: 2
# Processed by: cddbd v1.5.1PL0 Copyright (c) Steve Scherf et al.
# Submitted via: CDex 1.60beta1
#
DISCID=b111190d
DTITLE=Various Artist - Festival International de Jazz Montreal 2001
DYEAR=2001
DGENRE=Jazz
TTITLE0=Metalwood - Bumpus
TTITLE1=Michael Breker - Sometimes I See
TTITLE2=Chris Potter - Shadow
TTITLE3=Charlie Haden and Gonzalo Rubalcaba - Moonlight (Claro De Luna)
TTITLE4=John Scofield - Big J
TTITLE5=Mardi Gras B.B. - Psycoflute (Well Wicked Remix)
TTITLE6=Nils Peter Molvaer - Vildernedd (Chilluminati Mix)
TTITLE7=Bugge Wesseltoft - Change (Edit)
TTITLE8=Beady Belle - Game
TTITLE9=Kenny Barron and Regina Carter - Fragile
TTITLE10=Remember Shakti (with John McLaughlin) - Luki
TTITLE11=João Gilberto - Desafinado
TTITLE12=Diana Krall - But Not For Me
EXTD=YEAR: 2001
EXTT0=
EXTT1=
EXTT2=
EXTT3=
EXTT4=
EXTT5=
EXTT6=
EXTT7=
EXTT8=
EXTT9=
EXTT10=
EXTT11=
EXTT12=
PLAYORDER=
